<mxfile host="app.diagrams.net" agent="Mozilla/5.0 (Windows NT 10.0; Win64; x64) AppleWebKit/537.36 (KHTML, like Gecko) Chrome/131.0.0.0 Safari/537.36 Edg/131.0.0.0" version="26.0.6">
  <diagram name="Page-1" id="2YBvvXClWsGukQMizWep">
    <mxGraphModel dx="1426" dy="903" grid="1" gridSize="10" guides="1" tooltips="1" connect="1" arrows="1" fold="1" page="1" pageScale="1" pageWidth="850" pageHeight="1100" math="0" shadow="0">
      <root>
        <mxCell id="0" />
        <mxCell id="1" parent="0" />
        <mxCell id="aM9ryv3xv72pqoxQDRHE-1" value="Device" style="shape=umlLifeline;perimeter=lifelinePerimeter;whiteSpace=wrap;html=1;container=0;dropTarget=0;collapsible=0;recursiveResize=0;outlineConnect=0;portConstraint=eastwest;newEdgeStyle={&quot;edgeStyle&quot;:&quot;elbowEdgeStyle&quot;,&quot;elbow&quot;:&quot;vertical&quot;,&quot;curved&quot;:0,&quot;rounded&quot;:0};" parent="1" vertex="1">
          <mxGeometry x="80" y="40" width="160" height="1580" as="geometry" />
        </mxCell>
        <mxCell id="aM9ryv3xv72pqoxQDRHE-5" value="Vehicle" style="shape=umlLifeline;perimeter=lifelinePerimeter;whiteSpace=wrap;html=1;container=0;dropTarget=0;collapsible=0;recursiveResize=0;outlineConnect=0;portConstraint=eastwest;newEdgeStyle={&quot;edgeStyle&quot;:&quot;elbowEdgeStyle&quot;,&quot;elbow&quot;:&quot;vertical&quot;,&quot;curved&quot;:0,&quot;rounded&quot;:0};" parent="1" vertex="1">
          <mxGeometry x="280" y="40" width="160" height="1560" as="geometry" />
        </mxCell>
        <mxCell id="aM9ryv3xv72pqoxQDRHE-9" value="signed by" style="html=1;verticalAlign=bottom;endArrow=block;edgeStyle=elbowEdgeStyle;elbow=horizontal;curved=0;rounded=0;" parent="1" edge="1">
          <mxGeometry relative="1" as="geometry">
            <mxPoint x="559.5" y="164.5" as="sourcePoint" />
            <Array as="points">
              <mxPoint x="270" y="164.5" />
            </Array>
            <mxPoint x="230" y="164.5" as="targetPoint" />
          </mxGeometry>
        </mxCell>
        <mxCell id="aODJdHS8t_MNUbrkNVu9-1" value="Vehicle OEM" style="shape=umlLifeline;perimeter=lifelinePerimeter;whiteSpace=wrap;html=1;container=0;dropTarget=0;collapsible=0;recursiveResize=0;outlineConnect=0;portConstraint=eastwest;newEdgeStyle={&quot;edgeStyle&quot;:&quot;elbowEdgeStyle&quot;,&quot;elbow&quot;:&quot;vertical&quot;,&quot;curved&quot;:0,&quot;rounded&quot;:0};" vertex="1" parent="1">
          <mxGeometry x="480" y="40" width="160" height="1560" as="geometry" />
        </mxCell>
        <mxCell id="aODJdHS8t_MNUbrkNVu9-5" value="Device OEM" style="shape=umlLifeline;perimeter=lifelinePerimeter;whiteSpace=wrap;html=1;container=0;dropTarget=0;collapsible=0;recursiveResize=0;outlineConnect=0;portConstraint=eastwest;newEdgeStyle={&quot;edgeStyle&quot;:&quot;elbowEdgeStyle&quot;,&quot;elbow&quot;:&quot;vertical&quot;,&quot;curved&quot;:0,&quot;rounded&quot;:0};" vertex="1" parent="1">
          <mxGeometry x="680" y="40" width="160" height="1550" as="geometry" />
        </mxCell>
        <mxCell id="aODJdHS8t_MNUbrkNVu9-11" value="&lt;font style=&quot;color: rgb(255, 51, 51);&quot;&gt;Stage1&lt;/font&gt;" style="shape=tape;whiteSpace=wrap;html=1;" vertex="1" parent="1">
          <mxGeometry y="100" width="50" height="40" as="geometry" />
        </mxCell>
        <mxCell id="aODJdHS8t_MNUbrkNVu9-12" value="&lt;font style=&quot;color: rgb(255, 51, 51);&quot;&gt;Stage2&lt;/font&gt;" style="shape=tape;whiteSpace=wrap;html=1;" vertex="1" parent="1">
          <mxGeometry y="280" width="50" height="40" as="geometry" />
        </mxCell>
        <mxCell id="aODJdHS8t_MNUbrkNVu9-13" value="&lt;font style=&quot;color: rgb(255, 51, 51);&quot;&gt;Stage3&lt;/font&gt;" style="shape=tape;whiteSpace=wrap;html=1;" vertex="1" parent="1">
          <mxGeometry y="378" width="50" height="40" as="geometry" />
        </mxCell>
        <mxCell id="aODJdHS8t_MNUbrkNVu9-14" value="&lt;font style=&quot;color: rgb(255, 51, 51);&quot;&gt;Stage4&lt;/font&gt;" style="shape=tape;whiteSpace=wrap;html=1;" vertex="1" parent="1">
          <mxGeometry y="1150" width="50" height="40" as="geometry" />
        </mxCell>
        <mxCell id="aODJdHS8t_MNUbrkNVu9-15" value="&lt;font style=&quot;color: rgb(255, 51, 51);&quot;&gt;Stage5&lt;/font&gt;" style="shape=tape;whiteSpace=wrap;html=1;" vertex="1" parent="1">
          <mxGeometry y="1260" width="50" height="40" as="geometry" />
        </mxCell>
        <mxCell id="aODJdHS8t_MNUbrkNVu9-16" value="Digital Key Applet" style="ellipse;whiteSpace=wrap;html=1;" vertex="1" parent="1">
          <mxGeometry x="100" y="90" width="120" height="50" as="geometry" />
        </mxCell>
        <mxCell id="aODJdHS8t_MNUbrkNVu9-17" value="Instance CA" style="rounded=1;whiteSpace=wrap;html=1;" vertex="1" parent="1">
          <mxGeometry x="100" y="150" width="120" height="30" as="geometry" />
        </mxCell>
        <mxCell id="aODJdHS8t_MNUbrkNVu9-18" value="provide verifier(w0,L),salt(s)" style="html=1;verticalAlign=bottom;endArrow=block;edgeStyle=elbowEdgeStyle;elbow=horizontal;curved=0;rounded=0;" edge="1" parent="1" target="aM9ryv3xv72pqoxQDRHE-5">
          <mxGeometry x="-0.105" relative="1" as="geometry">
            <mxPoint x="559.5" y="200" as="sourcePoint" />
            <Array as="points">
              <mxPoint x="410" y="200" />
            </Array>
            <mxPoint x="380" y="200" as="targetPoint" />
            <mxPoint x="1" as="offset" />
          </mxGeometry>
        </mxCell>
        <mxCell id="aODJdHS8t_MNUbrkNVu9-19" value="&lt;font style=&quot;font-size: 11px;&quot;&gt;SPAKE2+&lt;/font&gt;" style="text;strokeColor=none;align=center;fillColor=none;html=1;verticalAlign=middle;whiteSpace=wrap;rounded=0;" vertex="1" parent="1">
          <mxGeometry x="425" y="200" width="60" height="30" as="geometry" />
        </mxCell>
        <mxCell id="aODJdHS8t_MNUbrkNVu9-21" value="IVI&lt;div&gt;NFC console&lt;/div&gt;" style="ellipse;whiteSpace=wrap;html=1;" vertex="1" parent="1">
          <mxGeometry x="300" y="275" width="120" height="50" as="geometry" />
        </mxCell>
        <mxCell id="aODJdHS8t_MNUbrkNVu9-22" value="APP" style="ellipse;whiteSpace=wrap;html=1;" vertex="1" parent="1">
          <mxGeometry x="100" y="280" width="120" height="50" as="geometry" />
        </mxCell>
        <mxCell id="aODJdHS8t_MNUbrkNVu9-23" value="" style="endArrow=classic;html=1;rounded=0;" edge="1" parent="1">
          <mxGeometry width="50" height="50" relative="1" as="geometry">
            <mxPoint x="359.5" y="390" as="sourcePoint" />
            <mxPoint x="159.5" y="390" as="targetPoint" />
          </mxGeometry>
        </mxCell>
        <mxCell id="aODJdHS8t_MNUbrkNVu9-27" value="AID select APP version" style="text;html=1;align=center;verticalAlign=middle;resizable=0;points=[];autosize=1;strokeColor=none;fillColor=none;" vertex="1" parent="1">
          <mxGeometry x="185" y="368" width="150" height="30" as="geometry" />
        </mxCell>
        <mxCell id="aODJdHS8t_MNUbrkNVu9-28" value="response" style="text;html=1;align=center;verticalAlign=middle;resizable=0;points=[];autosize=1;strokeColor=none;fillColor=none;" vertex="1" parent="1">
          <mxGeometry x="225" y="388" width="70" height="30" as="geometry" />
        </mxCell>
        <mxCell id="aODJdHS8t_MNUbrkNVu9-29" value="" style="endArrow=classic;startArrow=classic;html=1;rounded=0;" edge="1" parent="1">
          <mxGeometry width="50" height="50" relative="1" as="geometry">
            <mxPoint x="160" y="454.5" as="sourcePoint" />
            <mxPoint x="360" y="454.5" as="targetPoint" />
          </mxGeometry>
        </mxCell>
        <mxCell id="aODJdHS8t_MNUbrkNVu9-30" value="create SPAKE2+" style="text;html=1;align=center;verticalAlign=middle;resizable=0;points=[];autosize=1;strokeColor=none;fillColor=none;" vertex="1" parent="1">
          <mxGeometry x="205" y="432" width="110" height="30" as="geometry" />
        </mxCell>
        <mxCell id="aODJdHS8t_MNUbrkNVu9-31" value="Data exchange" style="text;html=1;align=center;verticalAlign=middle;resizable=0;points=[];autosize=1;strokeColor=none;fillColor=none;" vertex="1" parent="1">
          <mxGeometry x="210" y="450" width="100" height="30" as="geometry" />
        </mxCell>
        <mxCell id="aODJdHS8t_MNUbrkNVu9-32" value="" style="endArrow=classic;startArrow=classic;html=1;rounded=0;" edge="1" parent="1">
          <mxGeometry width="50" height="50" relative="1" as="geometry">
            <mxPoint x="160" y="530" as="sourcePoint" />
            <mxPoint x="360" y="530" as="targetPoint" />
          </mxGeometry>
        </mxCell>
        <mxCell id="aODJdHS8t_MNUbrkNVu9-33" value="Any error lead to OP flow" style="text;html=1;align=center;verticalAlign=middle;resizable=0;points=[];autosize=1;strokeColor=none;fillColor=none;" vertex="1" parent="1">
          <mxGeometry x="180" y="508" width="160" height="30" as="geometry" />
        </mxCell>
        <mxCell id="aODJdHS8t_MNUbrkNVu9-34" value="D.O.PK" style="rounded=1;whiteSpace=wrap;html=1;" vertex="1" parent="1">
          <mxGeometry x="700" y="570" width="120" height="30" as="geometry" />
        </mxCell>
        <mxCell id="aODJdHS8t_MNUbrkNVu9-35" value="V.O.PK" style="rounded=1;whiteSpace=wrap;html=1;" vertex="1" parent="1">
          <mxGeometry x="500" y="570" width="120" height="30" as="geometry" />
        </mxCell>
        <mxCell id="aODJdHS8t_MNUbrkNVu9-36" value="" style="endArrow=classic;html=1;rounded=0;exitX=0;exitY=0.5;exitDx=0;exitDy=0;entryX=1;entryY=0.5;entryDx=0;entryDy=0;" edge="1" parent="1" source="aODJdHS8t_MNUbrkNVu9-34" target="aODJdHS8t_MNUbrkNVu9-35">
          <mxGeometry width="50" height="50" relative="1" as="geometry">
            <mxPoint x="400" y="540" as="sourcePoint" />
            <mxPoint x="450" y="490" as="targetPoint" />
          </mxGeometry>
        </mxCell>
        <mxCell id="aODJdHS8t_MNUbrkNVu9-37" value="Verify" style="text;html=1;align=center;verticalAlign=middle;resizable=0;points=[];autosize=1;strokeColor=none;fillColor=none;" vertex="1" parent="1">
          <mxGeometry x="640" y="560" width="50" height="30" as="geometry" />
        </mxCell>
        <mxCell id="aODJdHS8t_MNUbrkNVu9-38" value="&lt;font style=&quot;color: rgb(255, 51, 51);&quot;&gt;Write data&lt;/font&gt;" style="ellipse;shape=cloud;whiteSpace=wrap;html=1;" vertex="1" parent="1">
          <mxGeometry y="563" width="90" height="40" as="geometry" />
        </mxCell>
        <mxCell id="aODJdHS8t_MNUbrkNVu9-39" value="V.PK" style="rounded=1;whiteSpace=wrap;html=1;" vertex="1" parent="1">
          <mxGeometry x="300" y="570" width="120" height="30" as="geometry" />
        </mxCell>
        <mxCell id="aODJdHS8t_MNUbrkNVu9-40" value="V.PK" style="rounded=1;whiteSpace=wrap;html=1;" vertex="1" parent="1">
          <mxGeometry x="100" y="570" width="120" height="30" as="geometry" />
        </mxCell>
        <mxCell id="aODJdHS8t_MNUbrkNVu9-41" value="" style="endArrow=classic;html=1;rounded=0;exitX=0;exitY=0.5;exitDx=0;exitDy=0;entryX=1;entryY=0.5;entryDx=0;entryDy=0;" edge="1" parent="1" source="aODJdHS8t_MNUbrkNVu9-39" target="aODJdHS8t_MNUbrkNVu9-40">
          <mxGeometry width="50" height="50" relative="1" as="geometry">
            <mxPoint x="400" y="440" as="sourcePoint" />
            <mxPoint x="450" y="390" as="targetPoint" />
          </mxGeometry>
        </mxCell>
        <mxCell id="aODJdHS8t_MNUbrkNVu9-42" value="Transfer" style="text;html=1;align=center;verticalAlign=middle;resizable=0;points=[];autosize=1;strokeColor=none;fillColor=none;" vertex="1" parent="1">
          <mxGeometry x="230" y="560" width="70" height="30" as="geometry" />
        </mxCell>
        <mxCell id="aODJdHS8t_MNUbrkNVu9-43" value="DKC Data" style="rounded=1;whiteSpace=wrap;html=1;" vertex="1" parent="1">
          <mxGeometry x="300" y="630" width="120" height="30" as="geometry" />
        </mxCell>
        <mxCell id="aODJdHS8t_MNUbrkNVu9-44" value="DKC Data" style="rounded=1;whiteSpace=wrap;html=1;" vertex="1" parent="1">
          <mxGeometry x="100" y="630" width="120" height="30" as="geometry" />
        </mxCell>
        <mxCell id="aODJdHS8t_MNUbrkNVu9-46" value="" style="endArrow=classic;html=1;rounded=0;exitX=0;exitY=0.5;exitDx=0;exitDy=0;entryX=1;entryY=0.5;entryDx=0;entryDy=0;" edge="1" parent="1" source="aODJdHS8t_MNUbrkNVu9-43" target="aODJdHS8t_MNUbrkNVu9-44">
          <mxGeometry width="50" height="50" relative="1" as="geometry">
            <mxPoint x="400" y="440" as="sourcePoint" />
            <mxPoint x="450" y="390" as="targetPoint" />
          </mxGeometry>
        </mxCell>
        <mxCell id="aODJdHS8t_MNUbrkNVu9-47" value="Transfer" style="text;html=1;align=center;verticalAlign=middle;resizable=0;points=[];autosize=1;strokeColor=none;fillColor=none;" vertex="1" parent="1">
          <mxGeometry x="231" y="620" width="70" height="30" as="geometry" />
        </mxCell>
        <mxCell id="aODJdHS8t_MNUbrkNVu9-48" value="&lt;font style=&quot;color: rgb(255, 51, 51);&quot;&gt;DK&lt;/font&gt;&lt;div&gt;&lt;font color=&quot;#ff3333&quot;&gt;Store in SE&lt;/font&gt;&lt;/div&gt;" style="ellipse;whiteSpace=wrap;html=1;" vertex="1" parent="1">
          <mxGeometry x="200" y="690" width="120" height="50" as="geometry" />
        </mxCell>
        <mxCell id="aODJdHS8t_MNUbrkNVu9-49" value="" style="endArrow=classic;html=1;rounded=0;entryX=1;entryY=0.5;entryDx=0;entryDy=0;exitX=0;exitY=0.5;exitDx=0;exitDy=0;" edge="1" parent="1" source="aODJdHS8t_MNUbrkNVu9-35" target="aODJdHS8t_MNUbrkNVu9-48">
          <mxGeometry width="50" height="50" relative="1" as="geometry">
            <mxPoint x="400" y="540" as="sourcePoint" />
            <mxPoint x="450" y="490" as="targetPoint" />
            <Array as="points">
              <mxPoint x="500" y="715" />
            </Array>
          </mxGeometry>
        </mxCell>
        <mxCell id="aODJdHS8t_MNUbrkNVu9-50" value="Verify" style="text;html=1;align=center;verticalAlign=middle;resizable=0;points=[];autosize=1;strokeColor=none;fillColor=none;" vertex="1" parent="1">
          <mxGeometry x="415" y="690" width="50" height="30" as="geometry" />
        </mxCell>
        <mxCell id="aODJdHS8t_MNUbrkNVu9-51" value="" style="endArrow=classic;html=1;rounded=0;exitX=0.25;exitY=1;exitDx=0;exitDy=0;entryX=0;entryY=0.5;entryDx=0;entryDy=0;" edge="1" parent="1" source="aODJdHS8t_MNUbrkNVu9-40" target="aODJdHS8t_MNUbrkNVu9-48">
          <mxGeometry width="50" height="50" relative="1" as="geometry">
            <mxPoint x="400" y="540" as="sourcePoint" />
            <mxPoint x="450" y="490" as="targetPoint" />
            <Array as="points">
              <mxPoint x="130" y="715" />
            </Array>
          </mxGeometry>
        </mxCell>
        <mxCell id="aODJdHS8t_MNUbrkNVu9-52" value="" style="endArrow=classic;html=1;rounded=0;exitX=0.25;exitY=1;exitDx=0;exitDy=0;entryX=-0.008;entryY=0.64;entryDx=0;entryDy=0;entryPerimeter=0;" edge="1" parent="1" source="aODJdHS8t_MNUbrkNVu9-44" target="aODJdHS8t_MNUbrkNVu9-48">
          <mxGeometry width="50" height="50" relative="1" as="geometry">
            <mxPoint x="400" y="540" as="sourcePoint" />
            <mxPoint x="450" y="490" as="targetPoint" />
            <Array as="points">
              <mxPoint x="130" y="722" />
            </Array>
          </mxGeometry>
        </mxCell>
        <mxCell id="aODJdHS8t_MNUbrkNVu9-53" value="Embed" style="text;html=1;align=center;verticalAlign=middle;resizable=0;points=[];autosize=1;strokeColor=none;fillColor=none;" vertex="1" parent="1">
          <mxGeometry x="125" y="690" width="60" height="30" as="geometry" />
        </mxCell>
        <mxCell id="aODJdHS8t_MNUbrkNVu9-54" value="DK.PK" style="rounded=1;whiteSpace=wrap;html=1;" vertex="1" parent="1">
          <mxGeometry x="200" y="770" width="120" height="30" as="geometry" />
        </mxCell>
        <mxCell id="aODJdHS8t_MNUbrkNVu9-55" value="DKC" style="rounded=1;whiteSpace=wrap;html=1;" vertex="1" parent="1">
          <mxGeometry x="100" y="815" width="120" height="30" as="geometry" />
        </mxCell>
        <mxCell id="aODJdHS8t_MNUbrkNVu9-58" value="" style="endArrow=classic;html=1;rounded=0;exitX=0;exitY=0.5;exitDx=0;exitDy=0;entryX=0.5;entryY=0;entryDx=0;entryDy=0;" edge="1" parent="1" source="aODJdHS8t_MNUbrkNVu9-54" target="aODJdHS8t_MNUbrkNVu9-55">
          <mxGeometry width="50" height="50" relative="1" as="geometry">
            <mxPoint x="400" y="540" as="sourcePoint" />
            <mxPoint x="450" y="490" as="targetPoint" />
          </mxGeometry>
        </mxCell>
        <mxCell id="aODJdHS8t_MNUbrkNVu9-59" value="Embed" style="text;html=1;align=center;verticalAlign=middle;resizable=0;points=[];autosize=1;strokeColor=none;fillColor=none;" vertex="1" parent="1">
          <mxGeometry x="140" y="770" width="60" height="30" as="geometry" />
        </mxCell>
        <mxCell id="aODJdHS8t_MNUbrkNVu9-60" value="" style="endArrow=classic;html=1;rounded=0;exitX=0.5;exitY=1;exitDx=0;exitDy=0;entryX=0.5;entryY=0;entryDx=0;entryDy=0;" edge="1" parent="1" source="aODJdHS8t_MNUbrkNVu9-48" target="aODJdHS8t_MNUbrkNVu9-54">
          <mxGeometry width="50" height="50" relative="1" as="geometry">
            <mxPoint x="400" y="540" as="sourcePoint" />
            <mxPoint x="450" y="490" as="targetPoint" />
          </mxGeometry>
        </mxCell>
        <mxCell id="aODJdHS8t_MNUbrkNVu9-61" value="&lt;font style=&quot;color: rgb(255, 51, 51);&quot;&gt;Get data&lt;/font&gt;" style="ellipse;shape=cloud;whiteSpace=wrap;html=1;" vertex="1" parent="1">
          <mxGeometry y="870" width="90" height="40" as="geometry" />
        </mxCell>
      </root>
    </mxGraphModel>
  </diagram>
</mxfile>
